PathFileType	4	(X/Y/Z)	C:/Users/beibeiliu/ov580/test_trc/User3\out1_training_dense_left.trc
DataRate	CameraRate	NumFrames	NumMarkers	Units	OrigDataRate	OrigDataStartFrame	OrigNumFrames
120	120	14	19	mm	120	188	500
Frame#	Time	ThumbCMC			ThumbMCP			ThumbIP			ThumbTip			IndexMCP			IndexPIP			IndexTip			MiddleMCP			MiddlePIP			MiddleTip			RingMCP			RingPIP			RingTip			PinkyMCP			PinkyPIP			PinkyTip			BackHand1			BackHand2			BackHand3	
		X0	Y0	Z0	X1	Y1	Z1	X2	Y2	Z2	X3	Y3	Z3	X4	Y4	Z4	X5	Y5	Z5	X6	Y6	Z6	X7	Y7	Z7	X8	Y8	Z8	X9	Y9	Z9	X10	Y10	Z10	X11	Y11	Z11	X12	Y12	Z12	X13	Y13	Z13	X14	Y14	Z14	X15	Y15	Z15	X16	Y16	Z16	X17	Y17	Z17	X18	Y18	Z18	
187	1.55833	-67.3885	50.3181	68.3434	-44.5652	44.8373	51.7919	-19.0641	40.5405	33.7307	-4.58622	36.3218	19.3221	-69.9532	64.6868	-11.4123	-58.1872	55.8954	-32.4722	-53.0124	35.1117	-56.3625	-93.9255	74.8932	-16.7178	-93.5776	74.0264	-43.3403	-88.7052	69.3292	-72.0816	-117.978	63.3242	-13.6916	-120.932	57.8054	-37.1622	-125.262	46.8589	-60.2868	-144.166	48.5456	0.201908	-148.523	38.4673	-19.3331	-149.171	23.6942	-38.8905	-120.11	71.7139	40.0323	-128.461	68.8991	69.7599	-94.9384	74.3776	56.7681	
188	1.56667	-64.4669	49.9215	68.0068	-40.1847	43.5476	50.8671	-18.6356	38.2068	31.6032	-6.02235	30.9507	14.8978	-70.828	63.9565	-10.1102	-59.6226	58.0298	-33.4565	-55.9051	44.7213	-59.8346	-101.488	70.0611	-13.4523	-96.1927	69.7925	-42.6614	-93.4572	66.5833	-77.7251	-123.458	56.3586	-12.2301	-126.935	46.0333	-37.1741	-126.088	26.055	-58.831	-142.417	41.8126	-0.902226	-147.651	26.515	-14.3893	-145.453	4.12617	-26.49	-125.412	72.2718	39.2721	-126.094	69.9048	73.8247	-93.0573	73.7132	54.6753	
189	1.575	-63.7824	50.383	66.8118	-43.8281	43.3641	48.5929	-19.1512	36.2081	32.6688	-4.26864	28.954	15.1219	-70.6802	64.7128	-6.93905	-61.0013	61.8409	-34.5386	-55.2096	55.2114	-58.6103	-101.176	69.3832	-14.6616	-102.465	67.7125	-43.2101	-103.193	60.4666	-76.5991	-120.021	53.4083	-13.585	-127.747	34.2973	-36.8951	-123.737	6.61754	-48.6251	-142.864	38.0164	0.690307	-140.261	18.7421	-9.98009	-132.12	-8.5709	-12.8561	-120.829	73.799	43.8243	-124.976	73.4206	74.0635	-89.5577	72.0034	56.4353	
190	1.58333	-60.6356	51.4698	66.9809	-38.8689	43.6434	48.0142	-18.2096	36.3495	29.4488	-5.12426	29.0368	14.9628	-73.266	65.1172	-7.19234	-67.4236	65.1149	-33.7659	-58.4022	63.0758	-61.4468	-102.359	67.3836	-17.2962	-101.804	62.0667	-48.1505	-107.055	49.3846	-75.7485	-124.368	49.1911	-9.6305	-122.668	25.9564	-30.3819	-122.531	-7.11189	-27.3799	-139.138	39.0207	5.69078	-134.762	12.6212	-4.3882	-122.591	-13.4053	4.01265	-123.669	73.0011	37.9688	-125.001	74.3986	68.8828	-87.5693	73.6005	58.2531	
191	1.59167	-63.3583	53.2971	63.632	-40.7783	45.6818	51.0378	-21.2831	37.4134	32.1496	-9.25508	28.551	12.5623	-73.5267	65.8759	-10.4393	-65.8884	68.1585	-36.3605	-63.1016	68.1642	-60.6398	-101.98	63.1817	-19.6851	-105.343	52.7104	-46.7952	-106.741	27.9289	-74.1636	-117.625	43.8993	-12.7795	-122.645	14.2615	-21.267	-118.494	-12.1595	-3.92368	-134.791	36.768	4.69072	-132.936	10.6134	1.38448	-117.106	-8.62138	20.1378	-122.13	76.8873	36.768	-123.121	78.3163	66.5559	-91.0565	75.3733	55.8306	
192	1.6	-59.6979	53.6201	67.0235	-38.0127	46.2714	49.3006	-21.4216	37.23	28.7187	-4.79836	26.5872	12.9698	-71.4671	64.8378	-13.0459	-68.9735	64.058	-35.3048	-59.5478	63.666	-63.1355	-99.9925	56.3271	-18.6676	-103.201	36.2387	-44.2681	-103.656	3.6868	-58.1046	-119.441	37.3829	-8.91262	-119.79	6.06422	-11.1214	-110.115	-12.0011	15.958	-138.071	34.2069	6.57382	-132.548	7.60352	7.78973	-118.896	-7.22344	31.0713	-119.975	76.2883	38.2478	-118.511	79.064	70.0508	-87.4409	75.6157	54.1462	
193	1.60833	-59.9248	54.2547	69.1585	-41.4281	44.146	49.9849	-21.2006	35.331	27.5132	-5.35884	26.4804	15.7681	-69.8461	59.4168	-15.0547	-64.1474	55.23	-37.9362	-63.233	51.7093	-64.73	-96.0378	44.385	-21.8849	-98.899	20.1013	-37.5847	-101.528	-17.0226	-32.3212	-118.154	31.5497	-7.50603	-116.545	1.60457	-2.82096	-112.669	-9.68612	25.2146	-132.815	35.3836	6.40993	-130.855	5.67003	9.62667	-116.318	-4.04362	38.2341	-119.664	74.8075	33.0157	-122.241	81.9152	66.4479	-84.5759	75.0904	52.1305	
194	1.61667	-61.7127	53.8645	64.7229	-38.9236	45.5354	49.7507	-23.018	34.8837	31.5184	-10.198	25.5766	12.1204	-68.6579	53.3779	-15.0814	-61.5678	42.7068	-41.3466	-57.9897	32.5983	-60.5538	-91.4348	39.2225	-18.293	-95.1299	6.31766	-27.8406	-101.296	-22.1291	-8.87498	-114.814	35.364	-6.52244	-116.909	4.20029	-4.25138	-110.614	-8.48995	29.7992	-133.019	38.1334	3.05238	-128.076	8.28364	5.02416	-117.353	-2.3839	30.2516	-116.739	77.6841	33.5961	-118.553	81.8575	64.5936	-85.1652	77.1481	52.8621	
195	1.625	-62.3338	53.9645	69.5346	-41.6674	45.4696	52.4266	-22.0881	35.9468	29.5499	-11.3949	24.0249	15.6058	-64.7196	46.2731	-11.6028	-61.0033	26.9911	-37.0539	-59.7402	8.03906	-52.4826	-90.0711	34.2366	-16.6579	-95.2	4.95539	-21.5366	-100.173	-25.8837	6.77409	-114.289	37.0179	-8.57085	-117.365	6.45607	-10.6147	-115.362	-12.3536	16.7143	-131.027	41.6813	-1.63945	-131.179	17.4003	-8.4099	-120.374	-3.63961	13.7948	-112.503	79.4984	31.0211	-115.237	84.19	59.4099	-82.5919	77.4822	47.4968	
196	1.63333	-64.4878	52.8554	69.0845	-41.811	44.5934	54.8935	-23.3725	32.9588	32.7738	-13.7599	21.2508	9.09549	-60.5368	38.5034	-9.44834	-60.3709	17.708	-26.5181	-62.9107	-8.22221	-40.4049	-86.2016	35.117	-14.0866	-92.1102	0.278734	-20.1001	-96.2257	-30.9956	2.88333	-108.097	39.7137	-13.8756	-108.315	8.4226	-21.6366	-111.451	-16.241	-3.33944	-127.168	48.8426	-3.45333	-131.184	27.4809	-20.3618	-128.217	-1.1258	-11.6272	-111.489	78.7074	30.8889	-116.101	86.5995	59.6934	-78.6762	76.031	52.9241	
197	1.64167	-60.4258	51.2124	72.799	-40.904	41.1607	57.5898	-28.4737	29.1896	29.6378	-22.8802	16.313	9.25642	-55.7852	34.7763	-7.60582	-56.6332	10.472	-24.0562	-58.6213	-12.9689	-31.4059	-81.3579	37.9042	-15.3242	-79.0496	7.90731	-25.3762	-89.9942	-30.0277	-15.4881	-100.323	46.395	-15.2139	-100.932	21.9563	-31.8447	-109.354	-8.14897	-28.5382	-122.271	56.003	-4.11041	-127.205	42.5708	-26.2655	-128.442	18.8876	-37.5607	-105.662	77.8565	31.8061	-114.666	83.8445	63.2768	-79.0282	74.3297	51.7803	
198	1.65	-61.4207	48.3983	77.888	-42.7852	37.2302	57.1659	-32.5902	23.3533	33.2554	-35.9669	12.1492	7.83682	-54.2819	39.5783	-3.23374	-48.2519	15.1192	-21.9422	-55.4574	-9.00706	-34.0496	-76.2515	42.192	-18.9148	-76.587	15.737	-35.1865	-80.9673	-19.4179	-36.778	-99.2114	54.3027	-14.6423	-99.5774	34.1646	-38.5031	-100.068	7.65162	-46.6897	-121.45	60.7421	-1.34293	-124.862	54.2271	-26.5076	-127.168	38.4997	-46.1482	-105.025	79.5893	30.8995	-112.322	83.8882	62.1575	-78.2586	75.349	57.3621	
199	1.65833	-65.4866	47.7616	71.9054	-44.0668	34.5832	53.945	-36.5836	18.298	26.7761	-45.263	8.09929	9.21342	-52.9386	47.1557	-7.64057	-44.9102	28.1686	-26.6414	-43.8329	3.30141	-41.6068	-71.595	53.1304	-19.1902	-70.5412	34.6389	-40.2032	-73.4293	4.16939	-56.4025	-95.7498	58.7268	-14.8716	-94.447	44.1257	-38.8317	-97.9514	18.4938	-56.1575	-122.221	62.2152	-8.2142	-122.47	55.9547	-25.5591	-128.174	43.7245	-47.3154	-102.535	79.0313	32.8241	-114.267	85.582	62.0723	-74.438	75.8544	54.7177	
200	1.66667	-64.4303	46.7513	69.3108	-44.8284	30.1747	51.716	-37.2871	12.0673	26.9873	-51.0734	4.00925	6.75978	-53.0636	57.7505	-9.33998	-39.6241	46.0949	-29.0353	-33.4185	24.7068	-49.9895	-78.5532	65.4956	-17.3946	-66.2756	51.7247	-48.0475	-69.6572	28.5354	-70.3558	-97.592	61.8476	-13.4562	-98.3573	51.2274	-40.366	-97.2993	26.11	-60.3156	-123.4	59.4899	-5.80797	-126.511	50.5239	-27.7595	-131.22	36.2329	-50.1234	-109.809	79.9694	35.1256	-119.356	84.4104	62.3852	-83.6357	77.7574	56.7575	
